<?xml version="1.0" encoding="UTF-8" standalone="no"?>
<svg
   xmlns:dc="http://purl.org/dc/elements/1.1/"
   xmlns:cc="http://creativecommons.org/ns#"
   xmlns:rdf="http://www.w3.org/1999/02/22-rdf-syntax-ns#"
   xmlns:svg="http://www.w3.org/2000/svg"
   xmlns="http://www.w3.org/2000/svg"
   version="1.1"
   id="svg2"
   width="64"
   height="64"
   viewBox="0 0 64 64">
  <metadata
     id="metadata8">
    <rdf:RDF>
      <cc:Work
         rdf:about="">
        <dc:format>image/svg+xml</dc:format>
        <dc:type
           rdf:resource="http://purl.org/dc/dcmitype/StillImage" />
        <dc:title></dc:title>
      </cc:Work>
    </rdf:RDF>
  </metadata>
  <defs
     id="defs6" />
  <rect
     style="opacity:1;fill:#606060;fill-opacity:1;fill-rule:evenodd;stroke:none;stroke-width:2;stroke-linecap:round;stroke-linejoin:round;stroke-miterlimit:4;stroke-dasharray:none;stroke-dashoffset:0;stroke-opacity:1;paint-order:stroke fill markers"
     id="rect855"
     width="64"
     height="64"
     x="0"
     y="0" />
  <path
     id="rect836"
     style="fill:#dddddd;fill-opacity:1;fill-rule:evenodd;stroke-width:4;stroke-linecap:round;stroke-linejoin:round;paint-order:fill markers stroke"
     d="m 24,32 v 4 2 h 8 v -2 h -6 v -2 h 8 v -2 h -8 z m 8,6 v 6 h 2 v -6 z m 0,6 h -6 v 2 h 6 z m -6,0 v -2 h -2 v 2 z M 38,32 v 2 h 6 v -2 z m 6,2 v 4 h 2 v -4 z m 0,4 h -6 v 2 h 6 z m 0,2 v 4 h 2 v -4 z m 0,4 h -6 v 2 h 6 z m -6,0 v -4 h -2 v 4 z m 0,-6 v -4 h -2 v 4 z" />
  <path
     id="rect868"
     style="fill:#dddddd;fill-opacity:1;fill-rule:evenodd;stroke-width:4;stroke-linecap:round;stroke-linejoin:round;paint-order:fill markers stroke"
     d="M 38 18 L 38 20 L 36 20 L 34 20 L 34 22 L 36 22 L 36 24 L 38 24 L 38 26 L 40 26 L 40 24 L 40 22 L 42 22 L 42 20 L 42 18 L 40 18 L 38 18 z M 36 24 L 34 24 L 34 26 L 36 26 L 36 24 z M 34 26 L 32 26 L 32 28 L 34 28 L 34 26 z M 32 28 L 30 28 L 30 30 L 32 30 L 32 28 z M 30 30 L 28 30 L 28 32 L 30 32 L 30 30 z M 28 32 L 26 32 L 26 34 L 28 34 L 28 32 z M 26 34 L 24 34 L 24 36 L 26 36 L 26 34 z M 24 36 L 22 36 L 20 36 L 20 38 L 18 38 L 18 40 L 20 40 L 20 42 L 22 42 L 22 40 L 24 40 L 24 38 L 24 36 z " />
  <path
     id="rect910"
     style="fill:#dddddd;fill-opacity:1;fill-rule:evenodd;stroke-width:4;stroke-linecap:round;stroke-linejoin:round;paint-order:fill markers stroke"
     d="M 14 14 L 14 31 L 14 33 L 14 34 L 14 50 L 16 50 L 28 50 L 36 50 L 48 50 L 50 50 L 50 34 L 50 33 L 50 31 L 50 30 L 50 14 L 48 14 L 36 14 L 28 14 L 16 14 L 14 14 z M 16 16 L 28 16 L 36 16 L 48 16 L 48 30 L 48 31 L 48 33 L 48 34 L 48 48 L 36 48 L 28 48 L 16 48 L 16 34 L 16 33 L 16 30 L 16 16 z " />
</svg>
